<?xml version="1.0" encoding="UTF-8" standalone="no"?>
<!DOCTYPE svg PUBLIC "-//W3C//DTD SVG 1.1//EN" "http://www.w3.org/Graphics/SVG/1.1/DTD/svg11.dtd">
<!-- Created with Vectornator (http://vectornator.io/) -->
<svg height="100%" stroke-miterlimit="10" style="fill-rule:nonzero;clip-rule:evenodd;stroke-linecap:round;stroke-linejoin:round;" version="1.1" viewBox="0 0 1024 768" width="100%" xml:space="preserve" xmlns="http://www.w3.org/2000/svg" xmlns:vectornator="http://vectornator.io" xmlns:xlink="http://www.w3.org/1999/xlink">
<defs/>
<g id="Layer-1" vectornator:layerName="Layer 1">
<g fill="#000000" opacity="1" stroke="none">
<path d="M301.074 421.447L310.125 421.447L323.701 377.585L324.049 377.585L337.394 421.447L346.329 421.447L362.69 363.892L354.219 363.892L342.383 409.959L341.919 409.959L327.995 363.892L320.336 363.892L306.528 409.959L306.063 409.959L294.228 363.892L284.712 363.892L301.074 421.447Z"/>
<path d="M386.71 422.491C394.484 422.491 399.358 419.707 402.027 416.458L402.607 416.458L403.535 421.447L410.73 421.447L410.73 379.789C410.73 368.07 403.651 362.848 391.003 362.848C384.389 362.848 378.819 363.892 373.83 365.981L373.83 372.363C377.427 371.319 381.952 370.506 387.522 370.506C397.85 370.506 401.795 372.827 401.795 381.762L401.795 387.796L386.246 389.653C375.222 390.929 368.724 396.267 368.724 406.362C368.724 417.154 376.266 422.491 386.71 422.491ZM388.915 415.529C382.3 415.529 378.007 412.396 378.007 406.13C378.007 399.516 381.488 396.615 388.567 395.919L401.795 394.41L401.795 411.352C399.358 413.789 394.252 415.529 388.915 415.529Z"/>
<path d="M451.111 422.491C460.394 422.491 467.008 419.591 470.489 417.154L470.489 410.54C465.268 412.976 460.162 414.833 452.503 414.833C440.203 414.833 433.357 409.263 432.893 394.874L472.114 394.874L472.114 389.885C472.114 372.015 464.687 362.848 448.906 362.848C435.678 362.848 423.842 371.783 423.842 391.857L423.842 393.482C423.842 411.468 433.009 422.491 451.111 422.491ZM448.674 370.042C458.073 370.042 462.831 375.264 462.831 387.796L432.893 387.796C433.821 374.22 441.48 370.042 448.674 370.042Z"/>
<path d="M485.458 438.621L494.393 438.621L494.393 418.662C497.642 420.519 502.516 422.491 509.13 422.491C525.027 422.491 535.123 413.673 535.123 392.67L535.123 391.161C535.123 369.81 524.215 362.848 511.567 362.848C504.14 362.848 498.106 365.401 494.509 368.65L494.045 368.65L494.045 364.008L485.458 364.008L485.458 438.621ZM508.318 415.181C502.284 415.181 497.062 413.324 494.393 411.12L494.393 374.568C497.062 372.711 502.516 370.39 509.246 370.39C519.806 370.39 525.84 375.38 525.84 391.625L525.84 393.946C525.84 409.379 519.225 415.181 508.318 415.181Z"/>
<path d="M571.094 422.491C586.643 422.491 597.319 411.584 597.319 393.25L597.319 391.625C597.319 373.407 587.456 362.848 571.21 362.848C555.661 362.848 545.102 373.756 545.102 391.973L545.102 393.714C545.102 412.048 554.849 422.491 571.094 422.491ZM571.326 415.181C561.695 415.181 554.153 409.959 554.153 393.946L554.153 391.045C554.153 377.585 560.651 370.158 571.094 370.158C580.493 370.158 588.268 375.38 588.268 391.393L588.268 394.294C588.268 407.871 581.77 415.181 571.326 415.181Z"/>
<path d="M611.011 421.447L619.83 421.447L619.83 364.008L611.011 364.008L611.011 421.447ZM610.895 352.405L619.946 352.405L619.946 343.121L610.895 343.121L610.895 352.405Z"/>
<path d="M637.004 421.447L645.823 421.447L645.823 374.684C650.58 372.479 656.614 370.506 662.068 370.506C671.235 370.506 673.672 373.407 673.672 380.37L673.672 421.447L682.491 421.447L682.491 378.513C682.491 367.373 677.037 362.848 665.781 362.848C658.703 362.848 651.277 365.401 645.939 368.882L645.475 368.882L645.475 363.892L637.004 363.892L637.004 421.447Z"/>
<path d="M717.418 422.143C722.408 422.143 724.845 420.867 727.166 419.823L727.166 413.789C724.845 414.485 722.176 414.833 719.739 414.833C713.125 414.833 711.268 412.628 711.268 407.058L711.268 371.319L726.005 371.319L726.005 364.008L711.268 364.008L711.268 350.316L702.449 350.316L702.449 364.008L694.211 364.008L694.211 371.319L702.449 371.319L702.449 408.451C702.449 418.198 708.367 422.143 717.418 422.143Z"/>
<path d="M754.434 422.375C767.083 422.375 774.741 416.341 774.741 405.434C774.741 395.455 770.216 391.741 759.192 388.84L753.39 387.216C747.24 385.475 744.803 383.387 744.803 378.397C744.803 373.059 748.633 370.39 756.407 370.39C762.789 370.39 768.591 371.899 771.608 373.407L771.608 366.213C768.591 364.589 763.601 362.848 755.943 362.848C742.715 362.848 736.333 369.462 736.333 379.209C736.333 388.956 742.018 392.786 750.373 395.107L756.059 396.615C763.369 398.704 766.038 401.024 766.038 406.362C766.038 411.584 762.325 414.833 753.158 414.833C745.035 414.833 740.858 413.092 735.868 411.236L735.868 418.314C740.626 420.983 746.892 422.375 754.434 422.375Z"/>
</g>
<path d="M454.912 457.914L492.752 488.699" fill="none" opacity="1" stroke="#000000" stroke-linecap="butt" stroke-linejoin="round" stroke-width="8.87092"/>
<path d="M539.899 457.653L491.371 488.699" fill="none" opacity="1" stroke="#000000" stroke-linecap="butt" stroke-linejoin="round" stroke-width="8.87092"/>
</g>
</svg>
