<?xml version="1.0" encoding="UTF-8" standalone="no"?>
<!DOCTYPE svg PUBLIC "-//W3C//DTD SVG 1.1//EN" "http://www.w3.org/Graphics/SVG/1.1/DTD/svg11.dtd">
<!-- Created with Vectornator (http://vectornator.io/) -->
<svg height="100%" stroke-miterlimit="10" style="fill-rule:nonzero;clip-rule:evenodd;stroke-linecap:round;stroke-linejoin:round;" version="1.1" viewBox="0 0 1024 768" width="100%" xml:space="preserve" xmlns="http://www.w3.org/2000/svg" xmlns:vectornator="http://vectornator.io" xmlns:xlink="http://www.w3.org/1999/xlink">
<defs/>
<clipPath id="ArtboardFrame">
<rect height="768" width="1024" x="0" y="0"/>
</clipPath>
<g clip-path="url(#ArtboardFrame)" id="Layer-1" vectornator:layerName="Layer 1">
<g fill="#ffffff" opacity="1" stroke="#ffffff" stroke-linecap="butt" stroke-linejoin="round" stroke-width="0">
<path d="M320.305 519.083L338.232 519.083L365.123 432.206L365.812 432.206L392.243 519.083L409.94 519.083L442.346 405.086L425.569 405.086L402.126 496.33L401.206 496.33L373.626 405.086L358.457 405.086L331.107 496.33L330.188 496.33L306.745 405.086L287.899 405.086L320.305 519.083Z"/>
<path d="M489.922 521.152C505.321 521.152 514.974 515.636 520.26 509.2L521.409 509.2L523.248 519.083L537.497 519.083L537.497 436.573C537.497 413.36 523.477 403.018 498.426 403.018C485.325 403.018 474.293 405.086 464.41 409.223L464.41 421.864C471.535 419.795 480.499 418.186 491.531 418.186C511.986 418.186 519.8 422.783 519.8 440.48L519.8 452.432L489.002 456.109C467.168 458.637 454.298 469.209 454.298 489.205C454.298 510.579 469.237 521.152 489.922 521.152ZM494.289 507.362C481.188 507.362 472.684 501.156 472.684 488.745C472.684 475.645 479.579 469.899 493.599 468.52L519.8 465.532L519.8 499.088C514.974 503.914 504.861 507.362 494.289 507.362Z"/>
<path d="M617.479 521.152C635.866 521.152 648.966 515.406 655.861 510.579L655.861 497.479C645.519 502.305 635.406 505.983 620.237 505.983C595.875 505.983 582.315 494.951 581.395 466.451L659.079 466.451L659.079 456.569C659.079 421.174 644.369 403.018 613.112 403.018C586.911 403.018 563.468 420.715 563.468 460.476L563.468 463.693C563.468 499.317 581.625 521.152 617.479 521.152ZM612.653 417.267C631.269 417.267 640.692 427.61 640.692 452.432L581.395 452.432C583.234 425.541 598.403 417.267 612.653 417.267Z"/>
<path d="M298.241 828.898L315.938 828.898L315.938 789.367C322.374 793.044 332.027 796.951 345.127 796.951C376.614 796.951 396.61 779.484 396.61 737.884L396.61 734.896C396.61 692.607 375.005 678.817 349.954 678.817C335.244 678.817 323.293 683.873 316.168 690.309L315.249 690.309L315.249 681.115L298.241 681.115L298.241 828.898ZM343.518 782.472C331.567 782.472 321.224 778.794 315.938 774.427L315.938 702.03C321.224 698.353 332.027 693.756 345.357 693.756C366.272 693.756 378.223 703.639 378.223 735.815L378.223 740.412C378.223 770.98 365.123 782.472 343.518 782.472Z"/>
<path d="M467.858 796.951C498.655 796.951 519.8 775.347 519.8 739.033L519.8 735.815C519.8 699.732 500.264 678.817 468.088 678.817C437.29 678.817 416.375 700.421 416.375 736.505L416.375 739.952C416.375 776.266 435.681 796.951 467.858 796.951ZM468.317 782.472C449.241 782.472 434.302 772.129 434.302 740.412L434.302 734.666C434.302 708.006 447.173 693.296 467.858 693.296C486.474 693.296 501.873 703.639 501.873 735.356L501.873 741.102C501.873 767.992 489.002 782.472 468.317 782.472Z"/>
<path d="M546.92 794.883L564.388 794.883L564.388 681.115L546.92 681.115L546.92 794.883ZM546.69 658.132L564.617 658.132L564.617 639.745L546.69 639.745L546.69 658.132Z"/>
<path d="M598.403 794.883L615.87 794.883L615.87 702.26C625.293 697.893 637.245 693.986 648.047 693.986C666.204 693.986 671.03 699.732 671.03 713.522L671.03 794.883L688.497 794.883L688.497 709.844C688.497 687.78 677.695 678.817 655.401 678.817C641.382 678.817 626.672 683.873 616.1 690.768L615.181 690.768L615.181 680.885L598.403 680.885L598.403 794.883Z"/>
<path d="M334.325 1072.06C344.208 1072.06 349.034 1069.53 353.631 1067.46L353.631 1055.51C349.034 1056.89 343.748 1057.58 338.922 1057.58C325.821 1057.58 322.144 1053.21 322.144 1042.18L322.144 971.394L351.333 971.394L351.333 956.915L322.144 956.915L322.144 929.794L304.677 929.794L304.677 956.915L288.358 956.915L288.358 971.394L304.677 971.394L304.677 1044.94C304.677 1064.25 316.398 1072.06 334.325 1072.06Z"/>
<path d="M407.642 1072.52C432.693 1072.52 447.862 1060.57 447.862 1038.96C447.862 1019.2 438.899 1011.84 417.065 1006.1L405.573 1002.88C393.392 999.434 388.565 995.297 388.565 985.414C388.565 974.842 396.15 969.555 411.549 969.555C424.19 969.555 435.681 972.543 441.657 975.531L441.657 961.281C435.681 958.064 425.798 954.616 410.629 954.616C384.429 954.616 371.788 967.717 371.788 987.023C371.788 1006.33 383.05 1013.91 399.597 1018.51L410.859 1021.5C425.339 1025.63 430.625 1030.23 430.625 1040.8C430.625 1051.15 423.27 1057.58 405.113 1057.58C389.025 1057.58 380.751 1054.13 370.868 1050.46L370.868 1064.48C380.292 1069.76 392.702 1072.52 407.642 1072.52Z"/>
</g>
<path d="M454.912 457.914L492.752 488.699" fill="none" opacity="1" stroke="#ffffff" stroke-linecap="butt" stroke-linejoin="round" stroke-width="8.87092"/>
<path d="M539.899 457.653L491.371 488.699" fill="none" opacity="1" stroke="#ffffff" stroke-linecap="butt" stroke-linejoin="round" stroke-width="8.87092"/>
</g>
</svg>
